<?xml version="1.0" encoding="utf-8"?>
<!-- Generator: Adobe Illustrator 18.0.0, SVG Export Plug-In . SVG Version: 6.00 Build 0)  -->
<!DOCTYPE svg PUBLIC "-//W3C//DTD SVG 1.1//EN" "http://www.w3.org/Graphics/SVG/1.1/DTD/svg11.dtd">
<svg version="1.1" id="Capa_1" xmlns="http://www.w3.org/2000/svg" xmlns:xlink="http://www.w3.org/1999/xlink" x="0px" y="0px"
	 viewBox="0 0 96 96" enable-background="new 0 0 96 96" xml:space="preserve">
<g>
	<g>
		<circle fill="#EC008C" cx="48" cy="48.5" r="47.3"/>
		<path fill="#870050" d="M48,5.4c23.8,0,43.1,19.3,43.1,43.1S71.8,91.7,48,91.7c-23.8,0-43.1-19.3-43.1-43.1S24.2,5.4,48,5.4
			 M48,1.2C21.9,1.2,0.7,22.4,0.7,48.5S21.9,95.9,48,95.9s47.3-21.2,47.3-47.3S74.1,1.2,48,1.2L48,1.2z"/>
	</g>
	<g>
		<defs>
			<circle id="SVGID_1_" cx="48" cy="48.5" r="44.1"/>
		</defs>
		<clipPath id="SVGID_2_">
			<use xlink:href="#SVGID_1_"  overflow="visible"/>
		</clipPath>
	</g>
	<g>
		<path fill="#FFFFFF" d="M56.6,55.6c-0.2-0.7-0.4-1.5-0.8-2.1c4.3-2.4,7.3-6.8,8-11.8c2.4-0.4,4.3-2.5,4.3-5.1
			c0-2.4-1.6-4.3-3.8-4.9v-2.6c0-9.1-6.7-15.5-16.3-15.5c-8.9,0-16.4,7.6-16.4,16.6v1.6c-2.1,0.6-3.7,2.6-3.7,4.9
			c0,2.6,1.9,4.7,4.3,5.1c0.6,5.1,3.7,9.4,7.9,11.8c-0.4,0.7-0.6,1.4-0.8,2.2c-6.8,3.2-11.4,10.2-11.4,18.1v6.3h40.2v-6.3
			C68.1,65.8,63.4,58.8,56.6,55.6z M66.2,78.2H29.8v-4.4c0-6.8,3.8-12.8,9.4-15.9c0.2,4.7,4.1,8.5,8.8,8.5c4.8,0,8.7-3.8,8.8-8.5
			c5.6,3.1,9.5,9.1,9.5,16V78.2z M41.6,54.8c0.1-0.2,0.1-0.3,0.2-0.5c0.2,0.1,0.4,0.1,0.6,0.2c0.1,0,0.1,0,0.2,0.1v0.9v1v1.2
			c0,3,2.4,5.4,5.4,5.4s5.4-2.4,5.4-5.4v-1.2v-1v-0.8c0.1,0,0.2-0.1,0.3-0.1c0.2-0.1,0.3-0.1,0.5-0.2c0.1,0.1,0.1,0.3,0.2,0.4
			c0.2,0.4,0.3,0.7,0.4,1.1c0.1,0.4,0.2,0.7,0.2,1.1c0,0.2,0,0.4,0,0.6c0,3.8-3.1,7-7,7c-3.8,0-7-3.1-7-7c0-0.2,0-0.4,0-0.6
			c0-0.4,0.1-0.7,0.2-1.1C41.3,55.5,41.4,55.1,41.6,54.8z M34,40.7c0-0.3,0-0.6,0-1c0,0,0-0.1,0-0.1v-6.2v-1v-0.1
			c0.4-0.1,0.9-0.2,1.5-0.4c1.7-0.4,4-1.1,5.9-1.9l-0.4,1.7L42,32c0,0,0.1,0,0.3,0c1.1,0,6.7-0.3,12.7-5.1c0.9,1.5,2.8,4,6.3,4.9
			c0.2,0.1,0.4,0.1,0.7,0.1v0.6v1v6.2c0,0,0,0.1,0,0.1c0,0.3,0,0.6,0,1c0,0.3-0.1,0.6-0.1,0.9c-0.6,4.5-3.4,8.2-7.1,10.3
			c-0.3,0.2-0.6,0.3-0.9,0.4c-0.2,0.1-0.3,0.2-0.5,0.2c-0.1,0.1-0.3,0.1-0.4,0.2c-0.2,0.1-0.4,0.1-0.5,0.2c-0.3,0.1-0.6,0.2-0.9,0.3
			c-1.1,0.3-2.3,0.4-3.5,0.4c-1.2,0-2.5-0.2-3.6-0.5c-0.3-0.1-0.6-0.2-0.9-0.3c-0.2-0.1-0.3-0.1-0.5-0.2c-0.1-0.1-0.3-0.1-0.4-0.2
			c-0.2-0.1-0.3-0.1-0.5-0.2c-0.3-0.1-0.6-0.3-0.9-0.4c-3.8-2.1-6.4-5.9-7.1-10.3C34.1,41.3,34,41,34,40.7z M29.8,36.6
			c0-1.5,1-2.7,2.3-3.1v6.2c0,0,0,0.1,0,0.1C30.7,39.3,29.8,38.1,29.8,36.6z M63.9,39.7C63.9,39.7,63.9,39.7,63.9,39.7l0-6.2
			c1.3,0.4,2.3,1.6,2.3,3.1C66.2,38.1,65.3,39.3,63.9,39.7z M62.5,29.1v1C62.3,30,62.2,30,62,30c-4.3-0.9-5.7-4.7-5.8-4.9l-0.5-1.3
			l-1,0.9c-4.8,4.2-9.4,5.2-11.4,5.4l0.9-3.6l-2,1.2c-2.2,1.3-6.1,2.4-8.3,2.9c-0.2,0-0.4,0.1-0.5,0.1v-0.5c0-4,1.8-7.8,4.6-10.6
			c2.6-2.5,6.2-4.2,9.9-4.2c7.3,0,12.7,4.1,14.1,10.3C62.3,26.8,62.5,27.9,62.5,29.1z M44.4,55.9v-0.8c1.2,0.3,2.4,0.4,3.6,0.4
			c1.2,0,2.4-0.1,3.5-0.4v0.8v1.7c0,2-1.6,3.6-3.6,3.6s-3.6-1.6-3.6-3.6V55.9z"/>
		<path fill="#FFFFFF" d="M43.3,47.4c0.2,0.2,0.5,0.3,0.8,0.5c0.3,0.1,0.6,0.3,0.9,0.4c0.7,0.3,1.6,0.4,2.5,0.5c0.2,0,0.3,0,0.5,0
			c0.2,0,0.3,0,0.5,0c0.9,0,1.8-0.2,2.5-0.5c0.3-0.1,0.6-0.2,0.9-0.4c0.3-0.1,0.6-0.3,0.8-0.5c0.7-0.5,1.1-1.1,1.1-1.8h-2.9h-5.7
			h-2.9C42.2,46.3,42.6,46.9,43.3,47.4z"/>
	</g>
</g>
</svg>
